<svg xmlns="http://www.w3.org/2000/svg" width="85" height="75" viewBox="0 0 85 75">
    <g fill="none" fill-rule="evenodd">
        <path fill="#FFF" d="M67.844 43.055c-.336-1.049-.672-1.049-1.009 0l-3.647 9.766c-.162.43-.46.666-.892.709h-1.513c-.528-.043-.696-.402-.504-1.077l5.115-13.18c.33-.59.979-.878 1.946-.866.96.006 1.585.32 1.873.939l5.26 13.18c.18.626.012.945-.505.958l-1.513.046c-.438-.043-.741-.283-.91-.718l-3.701-9.757z"/>
        <path fill="#E1384F" d="M67.54 50c.981 0 1.472.518 1.472 1.555 0 1.038-.512 1.55-1.536 1.537-1.024-.019-1.536-.544-1.536-1.575 0-1.037.534-1.543 1.6-1.518z"/>
        <path fill="#FFF" fill-rule="nonzero" d="M83.583 0H1.417C.567 0 0 .566 0 1.415v62.26c0 .848.567 1.414 1.417 1.414H59.5v8.49c0 .566.283 1.132.85 1.274.567.283 1.133.141 1.558-.283l4.675-4.67 4.675 4.67c.284.283.567.424.992.424.142 0 .425 0 .708-.141.567-.142.85-.708.85-1.274v-8.49h9.775c.85 0 1.417-.566 1.417-1.415V1.415C85 .566 84.433 0 83.583 0zm-17 58.014a11.279 11.279 0 0 1-7.409-2.775l-.066-.057a11.432 11.432 0 0 1-3.667-6.437l-.031-.172a10.7 10.7 0 0 1-.094-.666c-.006-.055-.01-.11-.015-.166a11.684 11.684 0 0 1-.051-1.047c0-6.226 5.1-11.32 11.333-11.32a11.552 11.552 0 0 1 1.906.165l.108.02c3.42.628 6.38 2.836 8.045 6.041.05.1.113.19.186.271a11.203 11.203 0 0 1 1.089 4.823c0 6.226-5.1 11.32-11.334 11.32zM76.5 36.617a14.135 14.135 0 0 0-9.917-4.072c-7.791 0-14.166 6.367-14.166 14.15 0 .239.006.477.018.714.18 3.565 1.698 6.792 4.059 9.19H14.025c-.567-2.83-2.692-4.952-5.525-5.518V14.008c2.833-.566 4.958-2.688 5.525-5.518h56.95c.567 2.83 2.692 4.952 5.525 5.518v22.609zm-5.667 33.566l-3.258-3.254c-.283-.283-.567-.425-.992-.425-.425 0-.708.142-.991.425l-3.259 3.254V60.278c2.692.85 5.809.85 8.5 0V70.184zm2.975-7.924v-3.41c3.499-2.087 6.034-5.636 6.742-9.787a14.073 14.073 0 0 0-1.217-8.515V12.735c0-.85-.566-1.415-1.416-1.415-2.409 0-4.25-1.84-4.25-4.245 0-.849-.567-1.415-1.417-1.415h-59.5c-.85 0-1.417.566-1.417 1.415 0 2.406-1.841 4.245-4.25 4.245-.85 0-1.416.566-1.416 1.415v39.62c0 .848.566 1.414 1.416 1.414 2.409 0 4.25 1.84 4.25 4.245 0 .85.567 1.415 1.417 1.415H59.5v2.83H2.833V2.83h79.334v59.43h-8.359z"/>
        <path fill="#FFF" fill-rule="nonzero" d="M34.429 17H51.57C52.43 17 53 16.4 53 15.5s-.571-1.5-1.429-1.5H34.43C33.57 14 33 14.6 33 15.5s.571 1.5 1.429 1.5zM64.588 21H19.412c-.847 0-1.412.6-1.412 1.5s.565 1.5 1.412 1.5h45.176c.847 0 1.412-.6 1.412-1.5s-.565-1.5-1.412-1.5zM64.588 29H19.412c-.847 0-1.412.6-1.412 1.5s.565 1.5 1.412 1.5h45.176c.847 0 1.412-.6 1.412-1.5s-.565-1.5-1.412-1.5zM48.562 36H28.437c-.862 0-1.437.6-1.437 1.5s.575 1.5 1.437 1.5h20.126c.862 0 1.437-.6 1.437-1.5s-.575-1.5-1.438-1.5zM19.5 39h3c.9 0 1.5-.6 1.5-1.5s-.6-1.5-1.5-1.5h-3c-.9 0-1.5.6-1.5 1.5s.6 1.5 1.5 1.5zM30.6 43H19.4c-.84 0-1.4.6-1.4 1.5s.56 1.5 1.4 1.5h11.2c.84 0 1.4-.6 1.4-1.5s-.56-1.5-1.4-1.5zM47.6 43H36.4c-.84 0-1.4.6-1.4 1.5s.56 1.5 1.4 1.5h11.2c.84 0 1.4-.6 1.4-1.5s-.56-1.5-1.4-1.5z"/>
    </g>
</svg>
