<?xml version="1.0" encoding="UTF-8"?>
<svg width="235px" height="46px" viewBox="0 0 235 46" version="1.1" xmlns="http://www.w3.org/2000/svg" xmlns:xlink="http://www.w3.org/1999/xlink">
    <!-- Generator: Sketch 52.6 (67491) - http://www.bohemiancoding.com/sketch -->
    <title>logo-academy-H-RW</title>
    <desc>Created with Sketch.</desc>
    <defs>
        <path d="M1.96326531,12.9994211 L0.719923469,12.9824737 C0.344642857,12.9715789 0.243928571,12.7306842 0.418979592,12.261 L4.57704082,1.75605263 C4.78326531,1.25247368 5.26645408,0.999473684 6.02780612,0.999473684 C6.78915816,0.999473684 7.26155612,1.24036842 7.44619898,1.72215789 L10.6366837,9.84478947 L13.8355612,1.75605263 C14.027398,1.25247368 14.5045918,0.999473684 15.2659439,0.999473684 C16.0272959,0.999473684 16.5044898,1.24036842 16.6975255,1.72215789 L20.8016327,12.261 C20.9946684,12.7427895 20.8807653,12.9885263 20.4587245,12.9994211 L19.2633418,12.9994211 C18.9324235,12.9885263 18.6962245,12.7996842 18.5583418,12.4328947 L15.668801,4.69642105 C15.4002296,3.78005263 15.1340561,3.78005263 14.8702806,4.69642105 L12.088648,12.0806316 C11.6941837,12.6943684 11.3069133,12.9994211 10.9256378,12.9994211 L10.1870663,12.9994211 C9.83816327,12.9994211 9.49645408,12.7052632 9.16553571,12.1157368 L6.41147959,4.69642105 C6.1465051,3.85389474 5.88512755,3.85389474 5.62494898,4.69642105 L2.68265306,12.4328947 C2.54357143,12.7996842 2.30377551,12.9885263 1.96326531,12.9994211 Z M27.5207143,9.72010526 C27.5207143,10.306 27.7509184,10.5977368 28.2125255,10.5977368 L35.8380357,10.5977368 C36.4962755,10.5977368 36.8247959,10.9972105 36.8247959,11.7949474 C36.8247959,12.5987368 36.4710969,12.9994211 35.763699,12.9994211 L26.4404337,12.9994211 C25.6035459,12.9994211 25.185102,12.5345789 25.185102,11.6048947 L25.185102,2.41094737 C25.185102,1.47157895 25.5831633,1.00068421 26.3792857,1.00068421 L35.8380357,1.00068421 C36.4962755,0.988578947 36.8247959,1.382 36.8247959,2.17973684 C36.8247959,2.99442105 36.4998724,3.39026316 35.8512245,3.36726316 L28.2125255,3.36726316 C27.7509184,3.40236842 27.5207143,3.68321053 27.5207143,4.211 L27.5207143,5.821 L31.3334694,5.821 C32.1343878,5.844 32.5348469,6.24226316 32.5348469,7.01821053 C32.5348469,7.82684211 32.121199,8.22026316 31.2939031,8.19726316 L27.5207143,8.19726316 L27.5207143,9.72010526 Z M45.5317857,7.01821053 C45.5317857,6.24226316 45.925051,5.84278947 46.7091837,5.81978947 L49.1646939,5.81978947 C49.8337245,5.81978947 50.2497704,5.637 50.4152296,5.27021053 C50.451199,5.18910526 50.4811735,5.09589474 50.5027551,4.98936842 C50.5243367,4.88284211 50.5363265,4.75815789 50.5363265,4.61531579 C50.5363265,4.31147368 50.4883673,4.08873684 50.392449,3.94831579 C50.2965306,3.80789474 50.096301,3.68926316 49.7941582,3.59121053 C49.6107143,3.53310526 49.3865051,3.49073684 49.1215306,3.46168421 C48.8565561,3.43263158 48.5496173,3.41326316 48.2019133,3.40236842 L44.3483929,3.40236842 C43.808852,3.40236842 43.5390816,3.69410526 43.5390816,4.28 L43.5390816,11.7949474 C43.5690561,12.6096316 43.1865816,13.0115263 42.3880612,12.9994211 C41.6027296,12.9994211 41.2106633,12.5975263 41.2106633,11.7949474 L41.2106633,2.51505263 C41.2106633,1.51636842 41.6446939,1.01157895 42.5151531,0.999473684 L48.161148,0.999473684 C50.1634439,1.01157895 51.5434694,1.55994737 52.3024235,2.64336842 C52.6681122,3.20626316 52.8503571,3.86357895 52.8503571,4.61531579 C52.7796173,6.02678947 52.2172959,6.86810526 51.1645918,7.13805263 C52.2089031,7.385 52.7568367,8.14521053 52.8107908,9.41868421 L52.8107908,11.7949474 C52.8107908,12.5975263 52.4187245,12.9994211 51.6333929,12.9994211 C50.8564541,12.9994211 50.4775765,12.5975263 50.4955612,11.7949474 L50.4955612,9.40173684 C50.5231378,9.26978947 50.5243367,9.15115789 50.5027551,9.04463158 C50.4811735,8.93810526 50.451199,8.84489474 50.4152296,8.76378947 C50.2497704,8.38610526 49.8337245,8.19726316 49.1646939,8.19726316 L46.7631378,8.19726316 C45.9418367,8.22026316 45.5317857,7.82684211 45.5317857,7.01821053 Z M67.8891582,12.9994211 L63.083648,12.9994211 C61.3331378,12.9994211 59.9171429,12.4522632 58.8344643,11.3579474 C57.7697704,10.2696842 57.2362245,8.81947368 57.2362245,7.00973684 C57.2362245,5.22178947 57.7697704,3.78247368 58.8344643,2.693 C59.9351276,1.58778947 61.3379337,1.02368421 63.0428827,1.00068421 L67.8891582,1.00068421 C68.547398,0.988578947 68.8759184,1.38078947 68.8759184,2.17731579 C68.8759184,2.992 68.5509949,3.38663158 67.9023469,3.36363158 L67.5126786,3.39873684 L63.0428827,3.39873684 C62.0273469,3.42052632 61.1916582,3.76794737 60.5394133,4.43857895 C59.8943622,5.13221053 59.5730357,5.98805263 59.5730357,7.00973684 C59.5730357,8.53378947 60.1737245,9.59663158 61.3775,10.1982632 C61.9014541,10.4791053 62.4565816,10.6074211 63.0428827,10.5844211 L67.8891582,10.5844211 C68.547398,10.5844211 68.8759184,10.9826842 68.8759184,11.7804211 C68.8759184,12.5817895 68.547398,12.9885263 67.8891582,12.9994211 Z M85.0249745,7.00126316 C85.051352,8.80252632 84.526199,10.2539474 83.4495153,11.3555263 C82.3860204,12.4522632 80.9772194,12.9994211 79.2267092,12.9994211 C77.4785969,12.9994211 76.063801,12.4522632 74.9823214,11.3555263 C73.9188265,10.2660526 73.3864796,8.81342105 73.3864796,7.00126316 L73.3864796,2.19668421 C73.3864796,1.42194737 73.7797449,1.02368421 74.5662755,1.00068421 C75.3659949,0.988578947 75.7508673,1.38805263 75.7196939,2.19668421 L75.7196939,7.00126316 C75.7196939,8.52652632 76.3203827,9.59178947 77.5229592,10.1946316 C78.1260459,10.4645789 78.6943622,10.5989474 79.2267092,10.5989474 C80.5851531,10.5989474 81.5875,10.0590526 82.236148,8.98047368 C82.3932143,8.70447368 82.5095153,8.40063158 82.587449,8.06773684 C82.6665816,7.73484211 82.6965561,7.37289474 82.6785714,6.98310526 L82.6785714,2.19668421 C82.6521939,1.38805263 83.0358673,0.988578947 83.8307908,1.00068421 C84.6185204,1.02368421 85.0117857,1.42194737 85.0117857,2.19668421 L85.0249745,2.51505263 L85.0249745,7.00126316 Z M93.7331633,7.01821053 C93.7331633,6.24226316 94.1264286,5.84278947 94.9105612,5.81978947 L97.3660714,5.81978947 C98.035102,5.81978947 98.4523469,5.637 98.6166071,5.27021053 C98.6525765,5.18910526 98.681352,5.09589474 98.7041327,4.98936842 C98.7257143,4.88284211 98.7377041,4.75815789 98.7377041,4.61531579 C98.7377041,4.31147368 98.6897449,4.08873684 98.5938265,3.94831579 C98.4979082,3.80789474 98.2976786,3.68926316 97.9955357,3.59121053 C97.8120918,3.53310526 97.5878827,3.49073684 97.3229082,3.46168421 C97.0567347,3.43263158 96.7509949,3.41326316 96.4032908,3.40236842 L92.5497704,3.40236842 C92.0102296,3.40236842 91.7404592,3.69410526 91.7404592,4.28 L91.7404592,11.7949474 C91.7716327,12.6096316 91.3879592,13.0115263 90.5894388,12.9994211 C89.8041071,12.9994211 89.4120408,12.5975263 89.4120408,11.7949474 L89.4120408,2.51505263 C89.4120408,1.51636842 89.8472704,1.01157895 90.7165306,0.999473684 L96.3625255,0.999473684 C98.3648214,1.01157895 99.7448469,1.55994737 100.503801,2.64336842 C100.86949,3.20626316 101.051735,3.86357895 101.051735,4.61531579 C100.980995,6.02678947 100.419872,6.86810526 99.3671684,7.13805263 C100.410281,7.385 100.958214,8.14521053 101.012168,9.41868421 L101.012168,11.7949474 C101.012168,12.5975263 100.618903,12.9994211 99.8347704,12.9994211 C99.0590306,12.9994211 98.6789541,12.5975263 98.6981378,11.7949474 L98.6981378,9.40173684 C98.7245153,9.26978947 98.7257143,9.15115789 98.7041327,9.04463158 C98.681352,8.93810526 98.6525765,8.84489474 98.6166071,8.76378947 C98.4523469,8.38610526 98.035102,8.19726316 97.3660714,8.19726316 L94.9645153,8.19726316 C94.1444133,8.22026316 93.7331633,7.82684211 93.7331633,7.01821053 Z M110.367806,12.9994211 C109.557296,12.9994211 109.179617,12.5987368 109.233571,11.7949474 L109.233571,7.155 C109.197602,7.109 109.158036,7.05694737 109.112474,7.00005263 C109.068112,6.94315789 108.99977,6.85236842 108.908648,6.72889474 C108.816327,6.60542105 108.688036,6.43473684 108.522577,6.21684211 C108.357117,5.99894737 108.141301,5.71084211 107.875128,5.35131579 C107.608954,4.993 107.281633,4.54510526 106.891964,4.00884211 C106.503495,3.47136842 106.033495,2.82131579 105.483163,2.05868421 C105.107883,1.47884211 105.21699,1.13142105 105.811684,1.01763158 L106.55625,1.01763158 C107.196505,0.994631579 107.708469,1.25247368 108.093342,1.79236842 L110.058469,4.52936842 C110.327041,4.81021053 110.596811,4.81021053 110.870179,4.52936842 L112.910842,1.74031579 C113.18301,1.24642105 113.632628,0.999473684 114.258495,0.999473684 L115.284821,0.999473684 C116.058163,1.02247368 116.253597,1.26942105 115.868724,1.74031579 L111.575179,7.155 L111.575179,11.8203684 C111.583571,12.6072105 111.180714,12.9994211 110.367806,12.9994211 Z" id="path-1"></path>
    </defs>
    <g id="Page-1" stroke="none" stroke-width="1" fill="none" fill-rule="evenodd">
        <g id="Artboard" transform="translate(-317.000000, -584.000000)">
            <g id="logo-academy-H-RW" transform="translate(317.000000, 584.000000)">
                <g id="logo" fill-rule="nonzero">
                    <path d="M22.8092536,46 C10.2120507,46 3.55271368e-15,35.7025492 3.55271368e-15,23 C3.55271368e-15,10.2974508 10.2120507,0 22.8092536,0 C35.4064565,0 45.6185072,10.2974508 45.6185072,23 C45.6185072,35.7025492 35.4064565,46 22.8092536,46 Z M22.8092536,43 C33.7439839,43 42.6185072,34.0512619 42.6185072,23 C42.6185072,11.9487381 33.7439839,3 22.8092536,3 C11.8745233,3 3,11.9487381 3,23 C3,34.0512619 11.8745233,43 22.8092536,43 Z M23.5922107,17.8402539 C23.1701755,16.5219599 22.7481466,16.5219599 22.3261114,17.8402539 L17.7478058,30.1095778 C17.5443245,30.6492303 17.1712811,30.9460347 16.6286644,31 L14.7295154,31 C14.0663172,30.9460347 13.8553028,30.4950462 14.0964657,29.6470208 L20.5173981,13.0874809 C20.9318969,12.347386 21.7458098,11.9850534 22.9591611,12.000472 C24.164976,12.0081813 24.9487439,12.4013508 25.3104884,13.1799923 L31.912292,29.7395322 C32.1383823,30.525883 31.9273679,30.9267617 31.2792424,30.9421804 L29.3800934,31 C28.8299403,30.9460347 28.4493607,30.6453757 28.2383431,30.0980139 L23.5922107,17.8402539 Z" id="Combined-Shape" fill="#FFFFFF"></path>
                    <path d="M23.0838323,27.0011682 C24.3612838,27.0011682 25,27.6716727 25,29.0127017 C25,30.3537308 24.33334,31.0160585 23,30.9997044 C21.66666,30.9751734 21,30.296492 21,28.96364 C21,27.6226109 21.6946038,26.9684601 23.0838323,27.0011682 Z" id="Combined-Shape" fill="#3583f8"></path>
                </g>
                <g id="type" transform="translate(60.000000, 4.000000)">
                    <path d="M8.88617347,25.2402632 C8.50969388,24.0612105 8.13321429,24.0612105 7.75793367,25.2402632 L3.67660714,36.204 C3.49436224,36.687 3.1622449,36.9521053 2.67905612,37.0005263 L0.986096939,37.0005263 C0.39380102,36.9521053 0.206760204,36.549 0.421377551,35.7912105 L6.14530612,20.9925263 C6.51459184,20.3303684 7.23997449,20.0071579 8.32145408,20.0204737 C9.39693878,20.0277368 10.0959439,20.3787895 10.4172704,21.0748421 L16.3030612,35.8735263 C16.5044898,36.5768421 16.31625,36.9339474 15.7383418,36.9484737 L14.0453827,37.0005263 C13.555,36.9521053 13.2156888,36.6833684 13.027449,36.1943158 L8.88617347,25.2402632 Z M40.0476531,33.559 C41.0008418,33.5723158 41.4780357,34.1448947 41.4780357,35.2743158 C41.4780357,36.4037368 41.0008418,36.9763158 40.0476531,36.9896316 L33.2650255,37.0005263 C30.7927296,37.0005263 28.8000255,36.2233684 27.2845153,34.6690526 C25.7690051,33.1159474 25.012449,31.0713684 25.012449,28.5365263 C25.012449,25.9944211 25.7678061,23.9474211 27.2797194,22.3979474 C28.7916327,20.8472632 30.7759439,20.0555789 33.235051,20.0204737 L40.0476531,19.9998947 C41.0008418,19.9865789 41.4780357,20.5446316 41.4780357,21.6740526 C41.4780357,22.8046842 41.0152296,23.3627368 40.0872194,23.3482105 L39.5632653,23.3893684 L33.235051,23.4099474 C31.7842857,23.4377895 30.6020918,23.9292632 29.6884694,24.8831579 C28.7748469,25.8370526 28.3168367,27.0548421 28.3168367,28.5365263 C28.3168367,30.6791579 29.1633163,32.1814211 30.8574745,33.0421053 C31.6092347,33.4282632 32.4017602,33.6074211 33.235051,33.5795789 L40.0476531,33.559 Z M58.5922704,33.3314211 C59.6665561,33.3314211 60.203699,33.8967368 60.203699,35.0261579 C60.203699,36.1555789 59.6437755,36.7136316 58.5215306,36.7003158 C57.3992857,36.6797368 56.8381633,36.1083684 56.8381633,34.985 C56.8381633,33.8543684 57.4232653,33.3035789 58.5922704,33.3314211 Z M59.0958418,25.2402632 C58.7193622,24.0612105 58.3428827,24.0612105 57.967602,25.2402632 L53.8862755,36.204 C53.7040306,36.687 53.3719133,36.9521053 52.8887245,37.0005263 L51.1957653,37.0005263 C50.6034694,36.9521053 50.4164286,36.549 50.6310459,35.7912105 L56.3549745,20.9925263 C56.7242602,20.3303684 57.4496429,20.0071579 58.5311224,20.0204737 C59.6066071,20.0277368 60.3044133,20.3787895 60.6269388,21.0748421 L66.5127296,35.8735263 C66.7141582,36.5768421 66.5259184,36.9339474 65.9480102,36.9484737 L64.255051,37.0005263 C63.7646684,36.9521053 63.4253571,36.6833684 63.2371173,36.1943158 L59.0958418,25.2402632 Z M83.4447194,20.0204737 C85.9577806,20.0555789 87.9660714,20.8436316 89.4707908,22.3870526 C90.9755102,23.9304737 91.7284694,25.9798947 91.7284694,28.5365263 C91.7284694,31.0786316 90.9719133,33.1244211 89.461199,34.6751053 C87.9492857,36.2245789 85.9541837,37.0005263 83.4746939,37.0005263 L76.4306888,36.9484737 C75.6249745,36.9617895 75.2221173,36.4654737 75.2221173,35.4607368 L75.2221173,21.323 C75.2221173,20.4550526 75.6249745,20.0144211 76.4306888,19.9998947 L83.4447194,20.0204737 Z M83.4447194,23.4099474 L79.41375,23.3893684 C78.8226531,23.4038947 78.5265051,23.7065263 78.5265051,24.2996842 L78.5265051,32.6498947 C78.5265051,33.2696842 78.8490306,33.5723158 79.4940816,33.559 L83.4447194,33.5795789 C85.3726786,33.6074211 86.8042602,32.8496316 87.7370663,31.3062105 C88.2010714,30.5411579 88.4324745,29.6175263 88.4324745,28.5365263 C88.4324745,26.9313684 87.9217092,25.6639474 86.9013776,24.7330526 C85.9601786,23.8784211 84.8079592,23.4377895 83.4447194,23.4099474 Z M109.143648,30.1901053 C108.069362,30.1901053 107.532219,29.6247895 107.532219,28.4953684 C107.532219,27.3647368 108.092143,26.8066842 109.214388,26.8212105 C110.336633,26.8417895 110.897755,27.4131579 110.897755,28.5365263 C110.897755,29.6659474 110.312653,30.2167368 109.143648,30.1901053 Z M115.553393,33.559 C116.506582,33.5723158 116.983776,34.1448947 116.983776,35.2743158 C116.983776,36.4037368 116.480204,36.9617895 115.473061,36.9484737 L111.401327,36.9484737 L102.29148,36.9690526 C101.109286,36.9690526 100.518189,36.3081053 100.518189,34.985 L100.518189,22.0045263 C100.518189,20.6826316 101.081709,20.0204737 102.211148,20.0204737 L115.553393,19.9998947 C116.506582,19.9865789 116.983776,20.5446316 116.983776,21.6740526 C116.983776,22.8046842 116.520969,23.3627368 115.592959,23.3482105 L104.790153,23.3482105 C104.146301,23.3893684 103.823776,23.7961053 103.823776,24.5684211 L103.823776,32.3387895 C103.823776,33.1655789 104.146301,33.5723158 104.790153,33.559 L115.553393,33.559 Z M132.24199,25.2402632 L128.100714,36.1943158 C127.912474,36.6833684 127.573163,36.9521053 127.082781,37.0005263 L125.328673,36.9484737 C124.791531,36.9339474 124.65125,36.5998421 124.905434,35.9461579 L130.770842,21.0954211 C131.052602,20.3860526 131.731224,20.0277368 132.806709,20.0204737 C133.888189,20.0071579 134.563214,20.3521579 134.831786,21.0542632 L139.336352,32.5361053 L143.831327,21.0954211 C144.113087,20.3860526 144.791709,20.0277368 145.865995,20.0204737 C146.948673,20.0071579 147.623699,20.3521579 147.89227,21.0542632 L153.696531,35.9352632 C153.959107,36.5974211 153.793648,36.9521053 153.202551,37.0005263 L151.509592,37.0005263 C151.026403,36.9521053 150.693087,36.687 150.512041,36.204 L146.430714,25.2402632 C146.054235,24.0273158 145.678954,24.0273158 145.302474,25.2402632 L141.351837,35.6774211 C140.814694,36.5586842 140.277551,37.0005263 139.739209,37.0005263 L138.691301,37.0005263 C138.208112,37.0005263 137.723724,36.5865263 137.240536,35.7597368 L133.371429,25.2402632 C132.994949,24.0273158 132.618469,24.0273158 132.24199,25.2402632 Z M161.667347,23.4099474 C160.498342,23.4377895 159.914439,22.887 159.914439,21.7575789 C159.914439,20.6342105 160.475561,20.0628421 161.596607,20.0410526 C162.718852,20.0277368 163.279974,20.5857895 163.279974,21.7152105 C163.279974,22.8458421 162.742832,23.4099474 161.667347,23.4099474 Z M168.580663,32.1947368 L168.580663,35.2948947 C168.607041,36.4243158 168.04352,36.9763158 166.887704,36.9484737 C165.759464,36.9763158 165.221122,36.411 165.275077,35.2537368 L165.234311,28.1854737 L170.635714,20.9102105 C171.482194,20.3521579 172.181199,20.0725263 172.73273,20.0725263 L173.558827,20.0725263 C174.297398,20.0241053 174.559974,20.3860526 174.344158,21.1571579 L168.610638,28.5365263 L168.580663,32.1947368 Z M8.38260204,33.3314211 C9.45688776,33.3314211 9.99403061,33.8967368 9.99403061,35.0261579 C9.99403061,36.1555789 9.43410714,36.7136316 8.31186224,36.7003158 C7.18961735,36.6797368 6.6284949,36.1083684 6.6284949,34.985 C6.6284949,33.8543684 7.21359694,33.3035789 8.38260204,33.3314211 Z" id="Clip-2" fill="#FFFFFF"></path>
                    <mask id="mask-2" fill="white">
                        <use xlink:href="#path-1"></use>
                    </mask>
                    <use id="Clip-5" fill="#3583f8" xlink:href="#path-1"></use>
                </g>
            </g>
        </g>
    </g>
</svg>