# Blender v2.79 (sub 0) OBJ File: 'spaceship-with-guns.blend'
# www.blender.org
v -0.259629 -10.846100 -0.000000
v 10.586492 -10.846100 -0.000000
v -0.259629 10.846100 0.000000
v 10.586492 10.846100 0.000000
v 0.259629 -10.846100 -0.000000
v -10.586492 -10.846100 -0.000000
v 0.259629 10.846100 0.000000
v -10.586492 10.846100 0.000000
vt 1.000000 1.000000
vt 0.000000 0.500000
vt 1.000000 0.500000
vt 0.000000 1.000000
vt 1.000000 1.000000
vt 1.000000 0.500000
vt 0.000000 0.500000
vt 0.000000 1.000000
vn 0.0000 -0.0000 1.0000
s off
f 2/1/1 3/2/1 1/3/1
f 2/1/1 4/4/1 3/2/1
f 6/5/1 5/6/1 7/7/1
f 6/5/1 7/7/1 8/8/1
